# xmcd CD database file
#
# Track frame offsets:
#	150
#	15290
#	32158
#	53231
#	66592
#	88149
#	107752
#	128878
#	145221
#	162455
#
# Disc length: 2541 seconds
#
# Revision: 3
# Processed by: cddbd v1.5.2PL0 Copyright (c) Steve Scherf et al.
# Submitted via: CDex 1.77
#
DISCID=8b09eb0a
DTITLE=Matthew E. White and Flo Morrissey - Gentlewoman, Ruby Man 
DYEAR=2017
DGENRE=Pop-Folk
TTITLE0=Look At What The Light Did Now
TTITLE1=Thinkin Bout You
TTITLE2=Looking For You
TTITLE3=The Colour In Anything
TTITLE4=Everybody Loves The Sunshine
TTITLE5=Grease
TTITLE6=Suzanne
TTITLE7=Sunday Morning
TTITLE8=Heaven Can Wait
TTITLE9=Govindam
EXTD=YEAR: 2017
EXTT0=
EXTT1=
EXTT2=
EXTT3=
EXTT4=
EXTT5=
EXTT6=
EXTT7=
EXTT8=
EXTT9=
PLAYORDER=
